HIERARCHY
ROOT Hips
{
	OFFSET 0.00000 0.00000 0.00000
	CHANNELS 6 Xposition Yposition Zposition Zrotation Yrotation Xrotation 
	JOINT LHipJoint
	{
		OFFSET 0 0 0
		CHANNELS 3 Zrotation Yrotation Xrotation
		JOINT LeftUpLeg
		{
			OFFSET 1.42489 -1.84941 0.69647
			CHANNELS 3 Zrotation Yrotation Xrotation
			JOINT LeftLeg
			{
				OFFSET 2.44443 -6.71602 0.00000
				CHANNELS 3 Zrotation Yrotation Xrotation
				JOINT LeftFoot
				{
					OFFSET 2.62838 -7.22137 0.00000
					CHANNELS 3 Zrotation Yrotation Xrotation
					JOINT LeftToeBase
					{
						OFFSET 0.24036 -0.66037 2.29953
						CHANNELS 3 Zrotation Yrotation Xrotation
						End Site
						{
							OFFSET 0.00000 -0.00000 1.19837
						}
					}
				}
			}
		}
	}
	JOINT RHipJoint
	{
		OFFSET 0 0 0
		CHANNELS 3 Zrotation Yrotation Xrotation
		JOINT RightUpLeg
		{
			OFFSET -1.37055 -1.84941 0.69647
			CHANNELS 3 Zrotation Yrotation Xrotation
			JOINT RightLeg
			{
				OFFSET -2.54834 -7.00152 0.00000
				CHANNELS 3 Zrotation Yrotation Xrotation
				JOINT RightFoot
				{
					OFFSET -2.65692 -7.29983 0.00000
					CHANNELS 3 Zrotation Yrotation Xrotation
					JOINT RightToeBase
					{
						OFFSET -0.18839 -0.51760 2.29390
						CHANNELS 3 Zrotation Yrotation Xrotation
						End Site
						{
							OFFSET -0.00000 -0.00000 1.18261
						}
					}
				}
			}
		}
	}
	JOINT LowerBack
	{
		OFFSET 0 0 0
		CHANNELS 3 Zrotation Yrotation Xrotation
		JOINT Spine
		{
			OFFSET 0.05220 2.15489 0.05011
			CHANNELS 3 Zrotation Yrotation Xrotation
			JOINT Spine1
			{
				OFFSET -0.07653 2.14219 -0.05668
				CHANNELS 3 Zrotation Yrotation Xrotation
				JOINT Neck
				{
					OFFSET 0 0 0
					CHANNELS 3 Zrotation Yrotation Xrotation
					JOINT Neck1
					{
						OFFSET 0.01370 1.58638 0.01447
						CHANNELS 3 Zrotation Yrotation Xrotation
						JOINT Head
						{
							OFFSET 0.23548 1.54190 -0.21747
							CHANNELS 3 Zrotation Yrotation Xrotation
							End Site
							{
								OFFSET 0.07132 1.59823 -0.08163
							}
						}
					}
				}
				JOINT LeftShoulder
				{
					OFFSET 0 0 0
					CHANNELS 3 Zrotation Yrotation Xrotation
					JOINT LeftArm
					{
						OFFSET 3.47056 1.45357 -0.58896
						CHANNELS 3 Zrotation Yrotation Xrotation
						JOINT LeftForeArm
						{
							OFFSET 5.19069 -0.00000 0.00000
							CHANNELS 3 Zrotation Yrotation Xrotation
							JOINT LeftHand
							{
								OFFSET 3.30016 -0.00000 0.00000
								CHANNELS 3 Zrotation Yrotation Xrotation
								JOINT LeftFingerBase
								{
									OFFSET 0 0 0
									CHANNELS 3 Zrotation Yrotation Xrotation
									JOINT LeftHandIndex1
									{
										OFFSET 0.70770 -0.00000 0.00000
										CHANNELS 3 Zrotation Yrotation Xrotation
										End Site
										{
											OFFSET 0.57056 -0.00000 0.00000
										}
									}
								}
								JOINT LThumb
								{
									OFFSET 0 0 0
									CHANNELS 3 Zrotation Yrotation Xrotation
									End Site
									{
										OFFSET 0.57928 -0.00000 0.57928
									}
								}
							}
						}
					}
				}
				JOINT RightShoulder
				{
					OFFSET 0 0 0
					CHANNELS 3 Zrotation Yrotation Xrotation
					JOINT RightArm
					{
						OFFSET -2.89018 2.03305 -0.26731
						CHANNELS 3 Zrotation Yrotation Xrotation
						JOINT RightForeArm
						{
							OFFSET -5.23924 -0.00000 0.00000
							CHANNELS 3 Zrotation Yrotation Xrotation
							JOINT RightHand
							{
								OFFSET -3.32953 -0.00000 0.00000
								CHANNELS 3 Zrotation Yrotation Xrotation
								JOINT RightFingerBase
								{
									OFFSET 0 0 0
									CHANNELS 3 Zrotation Yrotation Xrotation
									JOINT RightHandIndex1
									{
										OFFSET -0.60741 -0.00000 0.00000
										CHANNELS 3 Zrotation Yrotation Xrotation
										End Site
										{
											OFFSET -0.48971 -0.00000 0.00000
										}
									}
								}
								JOINT RThumb
								{
									OFFSET 0 0 0
									CHANNELS 3 Zrotation Yrotation Xrotation
									End Site
									{
										OFFSET -0.49719 -0.00000 0.49719
									}
								}
							}
						}
					}
				}
			}
		}
	}
}
MOTION
Frames: 10
Frame Time: 0.0952381
0.00 0.00 0.00 0 0 0 0 0 0 -21 0 0 0 0 0 0 0 0 0 0 0 0 0 0 21 0 0 0 0 0 0 0 0 0 0 0 0 0 0 0 0 0 0 0 0 0 0 -16 0 0 21 0 0 11 0 0 0 -8 0 0 0 0 0 0 0 0 0 0 0 0 0 0 0 0 0 0 0 0 8 0 0 0 0 0 0 0 0 0 0 0 0 0 0 0 0 0
0.00 0.00 0.00 -172.8610 -54.3239 175.6200 0.0000 0.0000 0.0000 -12.4728 -2.0263 -11.8541 2.5990 10.0158 29.0278 1.0460 -6.0354 -18.2592 0.2270 -3.0668 -8.4649 0.0000 0.0000 0.0000 26.1363 -1.5867 -12.1547 -3.0374 -10.7554 31.4593 -1.8966 -7.9273 -29.8700 -0.0001 0.0704 -0.1935 5.1428 -0.8126 -1.0314 0.1027 -1.3528 3.9437 -2.8434 -0.5206 4.5520 -4.6970 -4.8932 -9.2335 13.9210 -7.6074 6.9921 4.5354 -3.3104 4.3457 0.0000 -0.0000 0.0000 -52.3341 16.8270 67.9626 55.4719 -54.9774 -30.6021 -0.0000 0.0000 -4.0140 14.3810 -28.1077 -6.8879 -7.1250 0.0000 -0.0000 -9.4527 1.4487 9.3397 0.0000 -0.0000 0.0000 57.6805 -21.6870 65.9820 -53.1737 54.1980 -28.7289 0.0000 0.0000 14.3330 -29.1186 15.0798 -8.2457 7.1250 -0.0000 -0.0000 -1.0228 -12.8408 -0.7701
0.00 0.00 0.00 -172.6860 -52.6006 175.3450 0.0000 0.0000 0.0000 -12.9263 -1.4921 -10.8036 2.4903 9.8203 28.3966 1.1332 -4.9313 -19.0868 0.2006 -2.8842 -7.9566 0.0000 0.0000 0.0000 25.8366 -0.8821 -11.5297 -3.0121 -10.7145 31.3231 -1.7689 -8.2955 -29.2768 -0.0115 0.6916 -1.9005 5.3307 -0.2061 -0.8510 -0.0412 -0.5439 4.0850 -3.0597 -0.1057 4.6676 -2.3804 -2.5680 -9.7989 11.2495 -4.5157 8.0014 3.5479 -1.7817 4.3259 0.0000 -0.0000 0.0000 -63.4734 8.3783 48.2404 28.8883 -39.9213 -10.6890 -0.0000 0.0000 -2.5821 9.1259 -18.1270 -2.8612 -7.1250 0.0000 -0.0000 -12.3868 11.9531 9.7899 0.0000 -0.0000 0.0000 72.9527 -16.6117 46.2362 -29.8629 40.7756 -11.3200 0.0000 0.0000 7.3757 -13.9421 3.1930 -0.7922 7.1250 -0.0000 -0.0000 9.6304 -26.6616 4.3426
0.00 0.00 0.00 -179.3460 -37.2960 184.0900 0.0000 0.0000 0.0000 -21.6069 9.5496 -12.4557 2.5298 9.8919 28.6274 2.1862 -4.0308 -27.0107 0.0055 -0.4788 -1.3156 0.0000 0.0000 0.0000 16.7496 9.9153 -17.5116 -6.2178 -14.6361 45.8495 -2.0503 -3.0673 -28.2911 -0.7604 5.5691 -15.5391 0.2592 -2.0390 -4.0094 -3.4532 -2.8477 -1.8849 -3.8102 -1.5025 0.1197 -2.4475 -2.6867 -9.0401 10.5645 -5.2736 12.9881 3.3059 -2.1407 5.7622 -0.0000 0.0000 0.0000 -68.2450 5.4750 51.9215 27.8300 -38.9593 -10.0166 -0.0000 0.0000 -5.4041 1.3130 -4.8843 -0.1118 -7.1250 0.0000 -0.0000 -18.7600 25.0315 9.5571 -0.0000 0.0000 0.0000 78.0657 -17.0119 52.9066 -32.7670 43.1502 -13.2625 0.0000 0.0000 6.9036 -8.9634 -4.1056 0.6470 7.1250 -0.0000 -0.0000 14.4192 -33.8586 4.0495
0.00 0.00 0.00 -180.4730 -33.9717 185.2490 0.0000 0.0000 0.0000 -23.4333 13.2983 -10.3876 2.1077 9.0868 26.0673 2.2597 -3.9913 -27.4879 0.0065 -0.5214 -1.4328 0.0000 0.0000 0.0000 13.8405 11.8190 -24.5910 -10.1656 -17.5019 60.0404 -1.0875 -3.0332 -21.0089 -0.5449 4.7295 -13.1385 -1.2901 -3.7652 -6.0569 -3.7072 -5.2829 -3.7513 -3.3685 -2.8050 -0.7263 -3.0217 -2.8168 -9.6123 11.3964 -5.4272 12.1102 3.6415 -2.2088 5.6380 -0.0000 -0.0000 0.0000 -66.1727 1.3948 51.0268 33.8189 -43.9501 -13.9872 -0.0000 0.0000 -6.4868 -1.6720 -2.0125 0.0587 -7.1250 0.0000 -0.0000 -21.3986 27.6775 9.6473 -0.0000 -0.0000 0.0000 71.9839 -22.3904 60.9616 -40.3299 48.2642 -18.6851 0.0000 0.0000 4.2791 0.2185 -5.9796 -0.0228 7.1250 -0.0000 -0.0000 22.1137 -35.1665 5.6988
0.00 0.00 0.00 -181.3170 -31.5130 185.5620 0.0000 0.0000 0.0000 -24.6214 16.8090 -6.7829 1.4669 7.6540 21.6681 2.2006 -3.2998 -27.2416 0.0153 -0.7996 -2.1977 0.0000 0.0000 0.0000 12.3531 12.0607 -35.5597 -15.3106 -19.4644 76.1706 -0.3598 -6.9125 -15.9321 -0.0008 -0.1818 0.4995 -1.5963 -4.6423 -6.5088 -4.0348 -6.5829 -4.5219 -3.5984 -3.5140 -1.3534 -2.2427 -2.8405 -11.0904 10.7900 -5.6008 12.9042 3.2896 -2.2345 6.1204 -0.0000 -0.0000 0.0000 -63.9266 -3.4202 49.7700 38.3215 -47.0434 -17.2005 -0.0000 0.0000 -6.9463 -5.1469 0.7058 -0.0636 -7.1250 0.0000 -0.0000 -24.5046 30.0583 9.7595 -0.0000 -0.0000 0.0000 65.8149 -25.0075 66.4144 -48.3354 52.3017 -24.8509 0.0000 0.0000 1.9274 7.1499 -7.4548 -0.9324 7.1250 -0.0000 -0.0000 27.9052 -36.0319 6.8322
0.00 0.00 0.00 -181.8070 -29.8673 187.7200 0.0000 0.0000 0.0000 -24.5170 19.0431 6.3548 0.1298 2.3226 6.3982 1.6554 2.3682 -25.2585 0.1385 -2.3983 -6.6078 0.0000 0.0000 0.0000 12.0248 17.2475 -49.0353 -11.2227 -18.0424 63.5028 -1.2222 -2.7098 -22.0192 -0.6849 5.2911 -14.7406 -0.9074 -6.0264 -7.3838 -3.2313 -8.5698 -5.5432 -3.2697 -4.5646 -2.0206 -2.1826 -2.8494 -12.5115 10.6219 -5.5232 12.4172 3.2168 -2.1649 6.2026 0.0000 0.0000 0.0000 -61.0107 -10.5918 44.6298 49.3739 -52.7398 -25.6750 -0.0000 0.0000 -7.0499 -8.6791 4.5415 -0.6925 -7.1250 0.0000 -0.0000 -28.1200 33.3215 9.0097 0.0000 0.0000 0.0000 49.7444 -27.4399 76.9572 -74.1088 59.0240 -46.2829 0.0000 -0.0000 -3.9442 21.4403 -11.6912 -4.5498 7.1250 -0.0000 -0.0000 39.9187 -38.2644 8.2907
0.00 0.00 0.00 -182.6880 -30.2662 189.7310 0.0000 0.0000 0.0000 -24.4585 19.3212 11.2933 0.0000 0.0000 0.0000 1.2721 3.5085 -22.8288 0.2457 -3.1900 -8.8081 0.0000 0.0000 0.0000 8.9295 20.6301 -47.9693 -6.5314 -14.9243 47.0790 -1.1533 -2.5985 -21.3754 -0.5660 4.8186 -13.3919 -0.9107 -6.1079 -6.7700 -2.9802 -8.6101 -5.1931 -2.9633 -4.5468 -1.9508 -2.3780 -3.0122 -12.2820 10.6065 -5.7267 12.6092 3.2280 -2.2741 6.2413 0.0000 0.0000 0.0000 -61.6858 -11.5099 44.5417 52.6412 -54.0068 -28.2976 -0.0000 0.0000 -5.3128 3.7319 -0.7226 -0.0471 -7.1250 0.0000 -0.0000 -17.6427 29.0237 7.1811 0.0000 0.0000 0.0000 49.0236 -25.6103 75.7226 -77.7726 59.4275 -49.4311 0.0000 -0.0000 -4.5101 22.9399 -12.9069 -5.4006 7.1250 -0.0000 -0.0000 41.5231 -39.0811 7.7109
0.00 0.00 0.00 -182.7800 -30.5538 194.4300 0.0000 0.0000 0.0000 -22.4684 17.5511 14.7096 0.0000 0.0000 0.0000 -0.0008 10.0421 -14.2914 0.8468 -5.8694 -16.4059 0.0000 0.0000 0.0000 10.4833 21.7822 -47.3076 -7.4040 -15.6629 50.3863 -0.5822 -4.1857 -16.5466 -0.0363 -1.2298 3.3813 0.7753 -4.8732 -2.3229 -1.3468 -6.5336 -0.3608 -1.9845 -3.2767 0.6820 -2.7441 -3.3501 -7.5723 9.9854 -5.5748 9.1396 3.1661 -2.4437 4.3380 -0.0000 0.0000 0.0000 -69.3293 -10.8828 46.5031 42.0642 -49.2464 -19.9892 -0.0000 -0.0000 0.7850 30.7523 -15.8556 -9.2332 -7.1250 0.0000 -0.0000 2.0212 11.7002 -1.5704 -0.0000 0.0000 0.0000 61.9009 -9.1091 58.8587 -72.4665 58.8059 -44.8764 0.0000 0.0000 8.4747 -4.0117 -8.1380 0.5688 7.1250 -0.0000 -0.0000 19.3025 -37.4604 3.7526
0.00 0.00 0.00 -182.2170 -31.5687 194.8240 0.0000 0.0000 0.0000 -20.7622 14.0731 7.6644 0.7383 5.4894 15.3098 -0.2065 10.6005 -11.2597 0.4840 -4.4614 -12.3784 0.0000 0.0000 0.0000 13.1434 21.0392 -43.1238 -6.7647 -15.1305 47.9787 -0.7014 -4.9228 -18.3667 -0.0373 -1.2464 3.4272 1.3657 -4.0573 -1.4007 -0.9263 -5.4405 -0.5444 -1.7742 -2.7313 0.0078 -2.0415 -3.6447 -2.3875 9.5235 -6.0087 8.2068 3.3165 -2.8869 3.5288 -0.0000 0.0000 0.0000 -71.2107 -7.3913 49.8321 36.1421 -45.6106 -15.6239 -0.0000 -0.0000 1.2852 31.3922 -17.2671 -10.2666 -7.1250 0.0000 -0.0000 2.2629 9.9838 -1.8378 -0.0000 0.0000 0.0000 65.7874 -5.8852 55.3549 -70.5992 58.5289 -43.2814 0.0000 0.0000 10.4918 -11.4755 -6.0114 1.2179 7.1250 -0.0000 -0.0000 12.7259 -35.8616 2.9173
